<?xml version="1.0" encoding="UTF-8"?>
<svg version="1.1" xmlns="http://www.w3.org/2000/svg" width="800" height="800">
<path d="M0 0 C8.47158981 5.17620546 17.00432547 10.23619677 25.58227539 15.23388672 C35.65863341 21.1079945 45.66382699 27.08598133 55.61987305 33.16162109 C65.06539108 38.92426587 74.56001145 44.59903809 84.08227539 50.23388672 C94.11937004 56.17419885 104.12398711 62.16237205 114.08227539 68.23388672 C126.24934512 75.6498309 138.4898242 82.93737894 150.74902344 90.19979858 C151.40555908 90.58874298 152.06209473 90.97768738 152.73852539 91.37841797 C153.384104 91.76083649 154.02968262 92.143255 154.69482422 92.53726196 C160.58953356 96.0308493 166.46634689 99.55374642 172.33447266 103.09179688 C176.82729598 105.79581525 181.33369549 108.47548057 185.8531189 111.13473511 C188.69928502 112.80953189 191.54341916 114.48776756 194.38769531 116.16577148 C195.78148525 116.98659613 197.17630142 117.80568131 198.57226562 118.62280273 C219.19750251 130.69702955 235.94371167 142.04725939 243.21563625 166.14076233 C244.58652948 171.82454659 244.63442566 177.30776317 244.59020996 183.13037109 C244.59644992 184.4145417 244.60268989 185.69871231 244.60911894 187.02179718 C244.62565815 190.54756784 244.61763729 194.07289971 244.60517406 197.59867096 C244.59606192 201.41606972 244.61012361 205.23339704 244.62109375 209.05078125 C244.63881828 216.51375704 244.63506619 223.97657131 244.62344319 231.43955326 C244.61438514 237.50846233 244.61319509 243.57732634 244.61753845 249.64624023 C244.61815138 250.5121889 244.61876432 251.37813756 244.61939582 252.27032709 C244.62067481 254.02985065 244.62197166 255.78937421 244.62328619 257.54889774 C244.63467421 274.02222186 244.62160624 290.49545673 244.60008472 306.96876621 C244.58221536 321.08322605 244.58531996 335.19755426 244.60375977 349.31201172 C244.62519795 365.72906407 244.63357574 382.14603833 244.62131071 398.56310272 C244.6200366 400.31591287 244.61877912 402.06872303 244.61753845 403.8215332 C244.61692135 404.68379973 244.61630425 405.54606626 244.61566845 406.43446207 C244.61222438 412.49140209 244.61802348 418.5482923 244.62745667 424.60522461 C244.63871086 431.99333106 244.63556507 439.38126766 244.61433369 446.76935482 C244.60386902 450.53409604 244.59962234 454.29855475 244.6129303 458.06329346 C244.62717426 462.15490572 244.61009156 466.24581355 244.59020996 470.33740234 C244.59913285 471.51242561 244.60805573 472.68744888 244.61724901 473.89807892 C244.46503498 490.11985228 238.01408944 504.52807903 226.81835938 516.22045898 C223.93476584 518.86939228 221.01303835 520.89058781 217.70336914 522.97998047 C217.09399506 523.36546051 216.48462097 523.75094055 215.85678101 524.14810181 C209.69676125 528.02233859 203.45037978 531.75133056 197.18127441 535.44561768 C195.130202 536.65430573 193.0811377 537.86634136 191.0324707 539.07910156 C188.15235121 540.78364448 185.27148645 542.48691561 182.38989258 544.18896484 C175.5334752 548.2390616 168.68151733 552.29666837 161.83227539 556.35888672 C161.16746155 556.753078 160.50264771 557.14726929 159.81768799 557.55340576 C149.963975 563.39856531 140.15451736 569.31269444 130.37219238 575.27642822 C120.3080011 581.41026984 110.18388661 587.43881826 100.04125977 593.44189453 C90.68543369 598.98093825 81.36542507 604.57392795 72.08227539 610.23388672 C60.55658576 617.25925851 48.9694408 624.17676086 37.35375977 631.05224609 C36.09007214 631.80026635 34.82640009 632.54831295 33.56274414 633.29638672 C32.94152176 633.66413712 32.32029938 634.03188751 31.68025208 634.41078186 C26.69904197 637.36229313 21.73292589 640.33848574 16.7699585 643.32054138 C10.20703269 647.26274555 3.62976001 651.1806505 -2.95214844 655.09106445 C-4.30630868 655.89586632 -5.66014905 656.70120666 -7.01367188 657.50708008 C-14.18427242 661.77634135 -21.36635869 666.02573613 -28.59350586 670.19873047 C-29.68961182 670.83286865 -30.78571777 671.46700684 -31.91503906 672.12036133 C-43.43609541 678.31132494 -58.86369073 678.60666496 -71.54272461 675.85888672 C-85.9036333 671.00573785 -98.99824721 661.3169724 -111.83544922 653.46777344 C-120.30703903 648.29156798 -128.83977469 643.23157666 -137.41772461 638.23388672 C-147.49408262 632.35977893 -157.49927621 626.38179211 -167.45532227 620.30615234 C-176.9008403 614.54350757 -186.39546067 608.86873535 -195.91772461 603.23388672 C-205.95481926 597.29357459 -215.95943632 591.30540138 -225.91772461 585.23388672 C-238.08479434 577.81794254 -250.32527342 570.5303945 -262.58447266 563.26797485 C-263.56927612 562.68455826 -263.56927612 562.68455826 -264.57397461 562.08935547 C-265.54234253 561.51572769 -265.54234253 561.51572769 -266.53027344 560.93051147 C-272.42498278 557.43692414 -278.30179611 553.91402702 -284.16992188 550.37597656 C-288.6627452 547.67195819 -293.16914471 544.99229287 -297.68856812 542.33303833 C-300.53473424 540.65824155 -303.37886838 538.98000588 -306.22314453 537.30200195 C-307.61693446 536.48117731 -309.01175064 535.66209213 -310.40771484 534.8449707 C-331.03295172 522.77074388 -347.77916089 511.42051405 -355.05108547 487.32701111 C-356.4219787 481.64322684 -356.46987488 476.16001027 -356.42565918 470.33740234 C-356.43501912 468.41114643 -356.43501912 468.41114643 -356.44456816 466.44597626 C-356.46110736 462.9202056 -356.45308651 459.39487372 -356.44062328 455.86910248 C-356.43151114 452.05170371 -356.44557283 448.23437639 -356.45654297 444.41699219 C-356.4742675 436.9540164 -356.4705154 429.49120212 -356.45889241 422.02822018 C-356.44983436 415.95931111 -356.4486443 409.8904471 -356.45298767 403.8215332 C-356.4536006 402.95558454 -356.45421354 402.08963588 -356.45484504 401.19744635 C-356.45612403 399.43792278 -356.45742088 397.67839923 -356.45873541 395.91887569 C-356.47012343 379.44555158 -356.45705546 362.9723167 -356.43553394 346.49900723 C-356.41766457 332.38454739 -356.42076918 318.27021918 -356.43920898 304.15576172 C-356.46064717 287.73870937 -356.46902496 271.32173511 -356.45675993 254.90467072 C-356.45548582 253.15186057 -356.45422834 251.39905041 -356.45298767 249.64624023 C-356.45237057 248.78397371 -356.45175347 247.92170718 -356.45111766 247.03331137 C-356.4476736 240.97637135 -356.4534727 234.91948113 -356.46290588 228.86254883 C-356.47416007 221.47444238 -356.47101429 214.08650578 -356.44978291 206.69841862 C-356.43931824 202.9336774 -356.43507156 199.16921868 -356.44837952 195.40447998 C-356.46262348 191.31286772 -356.44554078 187.22195988 -356.42565918 183.13037109 C-356.43458207 181.95534782 -356.44350495 180.78032455 -356.45269823 179.56969452 C-356.3004842 163.34792116 -349.84953866 148.9396944 -338.65380859 137.24731445 C-335.77021506 134.59838116 -332.84848757 132.57718562 -329.53881836 130.48779297 C-328.92944427 130.10231293 -328.32007019 129.71683289 -327.69223022 129.31967163 C-321.53221047 125.44543485 -315.285829 121.71644288 -309.01672363 118.02215576 C-306.96565122 116.81346771 -304.91658692 115.60143208 -302.86791992 114.38867188 C-299.98780043 112.68412896 -297.10693567 110.98085783 -294.2253418 109.27880859 C-287.36892442 105.22871184 -280.51696654 101.17110506 -273.66772461 97.10888672 C-273.00291077 96.71469543 -272.33809692 96.32050415 -271.65313721 95.91436768 C-261.79942421 90.06920813 -251.98996658 84.15507899 -242.2076416 78.19134521 C-232.14345032 72.05750359 -222.01933583 66.02895518 -211.87670898 60.02587891 C-202.52088291 54.48683519 -193.20087429 48.89384549 -183.91772461 43.23388672 C-172.39203498 36.20851493 -160.80489002 29.29101258 -149.18920898 22.41552734 C-147.92552135 21.66750708 -146.66184931 20.91946049 -145.39819336 20.17138672 C-144.77697098 19.80363632 -144.1557486 19.43588593 -143.51570129 19.05699158 C-138.53449119 16.10548031 -133.56837511 13.12928769 -128.60540771 10.14723206 C-122.04248191 6.20502789 -115.46520923 2.28712294 -108.88330078 -1.62329102 C-107.52914054 -2.42809288 -106.17530017 -3.23343322 -104.82177734 -4.03930664 C-97.6511768 -8.30856791 -90.46909052 -12.55796269 -83.24194336 -16.73095703 C-82.1458374 -17.36509521 -81.04973145 -17.9992334 -79.92041016 -18.65258789 C-51.26192812 -34.05253161 -23.91170158 -14.62060837 0 0 Z M-116.91772461 136.73388672 C-117.63105957 136.96382324 -118.34439453 137.19375977 -119.0793457 137.43066406 C-166.41479098 152.77287444 -205.00486018 186.11055891 -229.91772461 228.73388672 C-230.26641602 229.31750977 -230.61510742 229.90113281 -230.97436523 230.50244141 C-256.17113625 273.0189814 -261.84197727 327.14180636 -250.19067383 374.70166016 C-238.2740348 419.65682511 -211.81509654 460.39949104 -173.91772461 487.73388672 C-173.36922852 488.13736328 -172.82073242 488.54083984 -172.25561523 488.95654297 C-138.78463033 513.36328695 -98.17536932 526.23667209 -56.91772461 526.04638672 C-56.05644958 526.04389923 -55.19517456 526.04141174 -54.30780029 526.03884888 C-7.27289412 525.82894464 35.64740242 510.13712579 72.50952148 480.97753906 C74.03507216 479.77121259 75.56832804 478.5746503 77.10180664 477.37841797 C81.96264853 473.51501285 86.34510543 469.64784816 90.29711914 464.85498047 C91.5698306 463.34276533 92.90320887 461.88075976 94.27368164 460.45654297 C102.38483242 452.0068851 112.33748823 440.9682482 116.08227539 429.73388672 C115.35041016 429.30793213 114.61854492 428.88197754 113.86450195 428.44311523 C100.16257877 420.4602649 86.49593093 412.42870914 72.95727539 404.17138672 C63.91732823 398.66200059 54.86673912 393.17171951 45.77178955 387.75344849 C44.56980036 387.03665797 43.36873636 386.31831351 42.16864014 385.59835815 C40.51480591 384.60670331 38.8572267 383.62130211 37.19946289 382.63623047 C36.25699707 382.07411865 35.31453125 381.51200684 34.34350586 380.93286133 C32.21435161 379.57773572 32.21435161 379.57773572 30.08227539 379.73388672 C29.1315224 381.05007571 28.24986195 382.41612888 27.39477539 383.79638672 C11.96699082 406.3152027 -11.51492737 420.19786644 -38.07763672 425.32592773 C-66.60087378 429.42309348 -93.90345443 422.86374609 -116.91772461 405.73388672 C-137.25836061 389.7325864 -151.05937594 365.76474121 -154.63256836 340.09326172 C-156.42262501 319.00492309 -153.6057674 299.6406006 -143.91772461 280.73388672 C-143.4059668 279.70134766 -142.89420898 278.66880859 -142.36694336 277.60498047 C-128.98490463 252.66723584 -105.92074763 237.74055465 -79.51928711 229.69873047 C-51.11317218 222.7109562 -23.60471394 229.18155616 1.08227539 243.73388672 C3.89459576 245.58308367 6.5016589 247.57535864 9.08227539 249.73388672 C9.79770508 250.31654297 10.51313477 250.89919922 11.25024414 251.49951172 C17.31999797 256.63947537 22.19510285 262.48241745 27.08227539 268.73388672 C28.41420557 270.40167494 29.74711337 272.06868465 31.08227539 273.73388672 C34.37065351 272.48441102 37.37533086 271.08788152 40.39868164 269.29248047 C41.64584961 268.5544519 41.64584961 268.5544519 42.91821289 267.80151367 C43.81797852 267.26357178 44.71774414 266.72562988 45.64477539 266.17138672 C46.60512695 265.60057373 47.56547852 265.02976074 48.55493164 264.44165039 C57.42552027 259.15564513 66.2497894 253.79311353 75.06982422 248.42333984 C84.30267962 242.80370769 93.56162069 237.22842062 102.83227539 231.67138672 C103.50218506 231.26981354 104.17209473 230.86824036 104.86230469 230.45449829 C108.60167881 228.21326493 112.34168979 225.97309774 116.08227539 223.73388672 C114.17767276 218.60602487 111.4043702 214.63330778 108.20727539 210.23388672 C107.63372314 209.44087158 107.0601709 208.64785645 106.46923828 207.83081055 C101.91100234 201.6359324 96.98165018 195.95817975 91.64086914 190.43310547 C89.08227539 187.73388672 89.08227539 187.73388672 87.05102539 185.14013672 C83.37362518 180.64553646 78.62203578 177.31760677 74.08227539 173.73388672 C73.11161133 172.94755859 72.14094727 172.16123047 71.14086914 171.35107422 C18.72260447 129.71102234 -53.06416767 115.13835191 -116.91772461 136.73388672 Z M69.08227539 289.73388672 C69.08227539 297.98388672 69.08227539 306.23388672 69.08227539 314.73388672 C60.83227539 314.73388672 52.58227539 314.73388672 44.08227539 314.73388672 C44.08227539 322.65388672 44.08227539 330.57388672 44.08227539 338.73388672 C52.33227539 338.73388672 60.58227539 338.73388672 69.08227539 338.73388672 C69.08227539 346.98388672 69.08227539 355.23388672 69.08227539 363.73388672 C77.33227539 363.73388672 85.58227539 363.73388672 94.08227539 363.73388672 C94.08227539 355.48388672 94.08227539 347.23388672 94.08227539 338.73388672 C102.33227539 338.73388672 110.58227539 338.73388672 119.08227539 338.73388672 C119.08227539 330.81388672 119.08227539 322.89388672 119.08227539 314.73388672 C110.83227539 314.73388672 102.58227539 314.73388672 94.08227539 314.73388672 C94.08227539 306.48388672 94.08227539 298.23388672 94.08227539 289.73388672 C85.83227539 289.73388672 77.58227539 289.73388672 69.08227539 289.73388672 Z M169.08227539 289.73388672 C169.08227539 297.98388672 169.08227539 306.23388672 169.08227539 314.73388672 C160.83227539 314.73388672 152.58227539 314.73388672 144.08227539 314.73388672 C144.08227539 322.65388672 144.08227539 330.57388672 144.08227539 338.73388672 C152.33227539 338.73388672 160.58227539 338.73388672 169.08227539 338.73388672 C169.08227539 346.98388672 169.08227539 355.23388672 169.08227539 363.73388672 C177.33227539 363.73388672 185.58227539 363.73388672 194.08227539 363.73388672 C194.08227539 355.48388672 194.08227539 347.23388672 194.08227539 338.73388672 C202.33227539 338.73388672 210.58227539 338.73388672 219.08227539 338.73388672 C219.08227539 330.81388672 219.08227539 322.89388672 219.08227539 314.73388672 C210.83227539 314.73388672 202.58227539 314.73388672 194.08227539 314.73388672 C194.08227539 306.48388672 194.08227539 298.23388672 194.08227539 289.73388672 C185.83227539 289.73388672 177.58227539 289.73388672 169.08227539 289.73388672 Z " fill="#01599C" transform="translate(455.917724609375,73.26611328125)"/>
<path d="M0 0 C8.47158981 5.17620546 17.00432547 10.23619677 25.58227539 15.23388672 C35.65863341 21.1079945 45.66382699 27.08598133 55.61987305 33.16162109 C65.06539108 38.92426587 74.56001145 44.59903809 84.08227539 50.23388672 C94.11937004 56.17419885 104.12398711 62.16237205 114.08227539 68.23388672 C126.24934512 75.6498309 138.4898242 82.93737894 150.74902344 90.19979858 C151.40555908 90.58874298 152.06209473 90.97768738 152.73852539 91.37841797 C153.384104 91.76083649 154.02968262 92.143255 154.69482422 92.53726196 C160.58953356 96.0308493 166.46634689 99.55374642 172.33447266 103.09179688 C176.82729598 105.79581525 181.33369549 108.47548057 185.8531189 111.13473511 C188.69928502 112.80953189 191.54341916 114.48776756 194.38769531 116.16577148 C195.78148525 116.98659613 197.17630142 117.80568131 198.57226562 118.62280273 C228.43524488 136.1048994 228.43524488 136.1048994 237.08227539 151.73388672 C221.79620471 161.06512092 206.46584784 170.31420457 191.05307007 179.43466187 C181.628008 185.01346958 172.24404303 190.6540603 162.89477539 196.35888672 C153.00919138 202.38656039 143.07084916 208.31606451 133.08227539 214.17138672 C132.45245758 214.54104553 131.82263977 214.91070435 131.17373657 215.29156494 C129.39424837 216.33525561 127.61355674 217.37685372 125.83227539 218.41748047 C124.81649414 219.01101318 123.80071289 219.6045459 122.75415039 220.21606445 C120.55728393 221.4640468 118.35632654 222.6351004 116.08227539 223.73388672 C115.60918945 223.00685547 115.13610352 222.27982422 114.64868164 221.53076172 C106.28553892 208.8148722 97.38344289 196.49614537 86.26196289 186.01904297 C85.08227539 184.73388672 85.08227539 184.73388672 85.08227539 182.73388672 C84.26629883 182.38970703 84.26629883 182.38970703 83.43383789 182.03857422 C80.41630982 180.36439752 78.0166772 178.14228634 75.45727539 175.85888672 C36.28841141 141.8860661 -17.01842015 124.8459191 -68.58691406 128.00317383 C-85.06957094 129.33611765 -101.25987629 132.43833821 -116.91772461 137.73388672 C-117.63105957 137.96382324 -118.34439453 138.19375977 -119.0793457 138.43066406 C-146.43045796 147.2956175 -170.84830926 162.31070788 -191.91772461 181.73388672 C-192.49619141 182.2670752 -193.0746582 182.80026367 -193.6706543 183.34960938 C-207.88957255 196.63131818 -219.12360483 211.97716334 -228.91772461 228.73388672 C-229.26641602 229.31750977 -229.61510742 229.90113281 -229.97436523 230.50244141 C-255.17113625 273.0189814 -260.84197727 327.14180636 -249.19067383 374.70166016 C-244.48578028 392.45073061 -237.96159276 410.07251748 -228.13256836 425.65185547 C-226.91772461 427.73388672 -226.91772461 427.73388672 -226.91772461 429.73388672 C-228.89705473 431.08464578 -230.8599345 432.29577579 -232.93334961 433.48779297 C-233.56706482 433.86020615 -234.20078003 434.23261932 -234.85369873 434.61631775 C-236.23059178 435.42449093 -237.60944785 436.22932664 -238.98999023 437.03125 C-242.68785969 439.17949658 -246.37181182 441.35142955 -250.05834961 443.51904297 C-250.80959106 443.95975128 -251.56083252 444.40045959 -252.33483887 444.85452271 C-259.2402466 448.9094467 -266.08419114 453.05907995 -272.91772461 457.23388672 C-284.27757368 464.15915536 -295.70074691 470.97285274 -307.14746094 477.75341797 C-318.64548867 484.56494731 -330.11115195 491.42893752 -341.56298828 498.31787109 C-344.0135781 499.79152801 -346.46546024 501.26301839 -348.91772461 502.73388672 C-349.90299161 500.50724355 -350.88103905 498.27787355 -351.85522461 496.04638672 C-352.13301758 495.42054688 -352.41081055 494.79470703 -352.69702148 494.14990234 C-355.05308579 488.72811582 -356.04079927 484.13982151 -356.05194569 478.25110626 C-356.05640353 477.15538189 -356.06086137 476.05965753 -356.0654543 474.93072939 C-356.06526994 473.73240339 -356.06508558 472.53407739 -356.06489563 471.29943848 C-356.06857232 470.02210327 -356.07224901 468.74476806 -356.07603711 467.42872572 C-356.08603587 463.88502468 -356.08977048 460.34134059 -356.09242642 456.79762745 C-356.09633583 452.97465613 -356.10591376 449.15169814 -356.11463928 445.32873535 C-356.13438645 436.0967156 -356.14446801 426.86469478 -356.15336707 417.6326592 C-356.15775312 413.28195579 -356.16311914 408.9312536 -356.16835594 404.58055115 C-356.18536701 390.11211652 -356.19986008 375.64368265 -356.20710468 361.17523956 C-356.20901449 357.42200215 -356.21093483 353.66876474 -356.21289062 349.91552734 C-356.21361624 348.5163041 -356.21361624 348.5163041 -356.2143565 347.08881372 C-356.22265272 331.98560365 -356.24798329 316.88247288 -356.2804713 301.77929741 C-356.31357529 286.26287449 -356.33155649 270.74649181 -356.33474892 255.2300334 C-356.336911 246.5223292 -356.34561527 237.81474063 -356.3712101 229.10707092 C-356.39296283 221.68951687 -356.40094513 214.27210653 -356.39124332 206.8545242 C-356.38671171 203.07361904 -356.38851776 199.29301014 -356.40800476 195.512146 C-356.42900162 191.40262583 -356.41860917 187.2937569 -356.4054718 183.1842041 C-356.41644105 182.00372387 -356.42741029 180.82324365 -356.43871194 179.60699129 C-356.31391317 163.36758452 -349.86098545 148.95164898 -338.65380859 137.24731445 C-335.77021506 134.59838116 -332.84848757 132.57718562 -329.53881836 130.48779297 C-328.92944427 130.10231293 -328.32007019 129.71683289 -327.69223022 129.31967163 C-321.53221047 125.44543485 -315.285829 121.71644288 -309.01672363 118.02215576 C-306.96565122 116.81346771 -304.91658692 115.60143208 -302.86791992 114.38867188 C-299.98780043 112.68412896 -297.10693567 110.98085783 -294.2253418 109.27880859 C-287.36892442 105.22871184 -280.51696654 101.17110506 -273.66772461 97.10888672 C-273.00291077 96.71469543 -272.33809692 96.32050415 -271.65313721 95.91436768 C-261.79942421 90.06920813 -251.98996658 84.15507899 -242.2076416 78.19134521 C-232.14345032 72.05750359 -222.01933583 66.02895518 -211.87670898 60.02587891 C-202.52088291 54.48683519 -193.20087429 48.89384549 -183.91772461 43.23388672 C-172.39203498 36.20851493 -160.80489002 29.29101258 -149.18920898 22.41552734 C-147.92552135 21.66750708 -146.66184931 20.91946049 -145.39819336 20.17138672 C-144.77697098 19.80363632 -144.1557486 19.43588593 -143.51570129 19.05699158 C-138.53449119 16.10548031 -133.56837511 13.12928769 -128.60540771 10.14723206 C-122.04248191 6.20502789 -115.46520923 2.28712294 -108.88330078 -1.62329102 C-107.52914054 -2.42809288 -106.17530017 -3.23343322 -104.82177734 -4.03930664 C-97.6511768 -8.30856791 -90.46909052 -12.55796269 -83.24194336 -16.73095703 C-82.1458374 -17.36509521 -81.04973145 -17.9992334 -79.92041016 -18.65258789 C-51.26192812 -34.05253161 -23.91170158 -14.62060837 0 0 Z " fill="#659AD2" transform="translate(455.917724609375,73.26611328125)"/>
<path d="M0 0 C1.4375 1.9140625 1.4375 1.9140625 3 4.625 C9.73337898 15.66262757 18.12394974 25.62495543 27 35 C27.82886719 35.88171875 28.65773438 36.7634375 29.51171875 37.671875 C36.47663304 44.87064773 43.93416956 51.08155175 52 57 C52.55574707 57.41072754 53.11149414 57.82145508 53.68408203 58.24462891 C87.15207622 82.63589089 127.75438465 95.50272989 169 95.3125 C169.86127502 95.31001251 170.72255005 95.30752502 171.60992432 95.30496216 C221.88651061 95.08059116 270.38912517 77.04286209 307.29296875 42.3984375 C309 41 309 41 311 41 C311.37125 40.13181641 311.37125 40.13181641 311.75 39.24609375 C313.18957582 36.65935596 314.83395172 35.07769849 317 33.0625 C323.69052348 26.51136242 329.29243565 19.08139638 334.4921875 11.3125 C334.89308594 10.71598633 335.29398438 10.11947266 335.70703125 9.50488281 C336.81511381 7.83997949 337.90422118 6.16249279 338.9921875 4.484375 C341 2 341 2 342.82958984 1.1875 C345.84800455 0.92674156 347.17586916 1.92119383 349.734375 3.515625 C350.68417236 4.09747559 351.63396973 4.67932617 352.61254883 5.27880859 C353.64790771 5.92930176 354.6832666 6.57979492 355.75 7.25 C357.42967486 8.28237104 359.10938481 9.31468696 360.7903595 10.34494019 C361.98463449 11.0775844 363.17796187 11.81177523 364.3704071 12.5473938 C370.79450052 16.50759454 377.29063766 20.34346626 383.78915405 24.17984009 C395.47875846 31.08471297 407.11373872 38.07525325 418.70681763 45.14083862 C426.17283157 49.69094547 433.66623414 54.18341687 441.22021484 58.58569336 C448.58185515 62.89295628 455.79258898 67.44080326 463 72 C457.5453096 80.631598 452.43407973 87.70985425 443.6796875 93.1953125 C443.06608368 93.58445831 442.45247986 93.97360413 441.82028198 94.37454224 C435.64746403 98.2666104 429.38559051 102.00713954 423.09899902 105.71173096 C421.04792661 106.92041901 418.99886231 108.13245464 416.95019531 109.34521484 C414.07007582 111.04975776 411.18921106 112.75302889 408.30761719 114.45507812 C401.45119981 118.50517488 394.59924194 122.56278165 387.75 126.625 C387.08518616 127.01919128 386.42037231 127.41338257 385.7354126 127.81951904 C375.8816996 133.66467859 366.07224197 139.57880773 356.28991699 145.5425415 C346.22572571 151.67638312 336.10161122 157.70493154 325.95898438 163.70800781 C316.6031583 169.24705153 307.28314968 174.84004123 298 180.5 C286.47431037 187.52537179 274.88716541 194.44287414 263.27148438 201.31835938 C262.00779674 202.06637963 260.7441247 202.81442623 259.48046875 203.5625 C258.85924637 203.9302504 258.23802399 204.29800079 257.59797668 204.67689514 C252.61676658 207.62840641 247.6506505 210.60459902 242.68768311 213.58665466 C236.1247573 217.52885883 229.54748462 221.44676378 222.96557617 225.35717773 C221.61141593 226.1619796 220.25757556 226.96731994 218.90405273 227.77319336 C211.73345219 232.04245463 204.55136591 236.29184941 197.32421875 240.46484375 C196.22811279 241.09898193 195.13200684 241.73312012 194.00268555 242.38647461 C182.48162919 248.57743822 167.05403388 248.87277824 154.375 246.125 C140.01409131 241.27185113 126.9194774 231.58308568 114.08227539 223.73388672 C105.61068558 218.55768126 97.07794992 213.49768994 88.5 208.5 C78.42364199 202.62589222 68.4184484 196.64790539 58.46240234 190.57226562 C49.01688431 184.80962085 39.52226394 179.13484863 30 173.5 C19.96290535 167.55968787 9.95828828 161.57151467 0 155.5 C-12.16706973 148.08405582 -24.40754881 140.79650778 -36.66674805 133.53408813 C-37.32328369 133.14514374 -37.97981934 132.75619934 -38.65625 132.35546875 C-39.62461792 131.78184097 -39.62461792 131.78184097 -40.61254883 131.19662476 C-46.50725817 127.70303742 -52.3840715 124.1801403 -58.25219727 120.64208984 C-62.74502059 117.93807147 -67.2514201 115.25840615 -71.77084351 112.59915161 C-74.61700963 110.92435483 -77.46114377 109.24611916 -80.30541992 107.56811523 C-81.69920985 106.74729059 -83.09402603 105.92820541 -84.48999023 105.11108398 C-116.09075986 86.61166687 -116.09075986 86.61166687 -122 74 C-121.5859375 71.91796875 -121.5859375 71.91796875 -120 70 C-117.88999663 68.62880185 -115.85090838 67.46416076 -113.625 66.3125 C-105.93231056 62.15694634 -98.45647726 57.68854189 -91 53.125 C-80.71133583 46.83978569 -70.3764868 40.63909341 -60 34.5 C-49.57006967 28.32635339 -39.16936183 22.10804209 -28.8125 15.8125 C-27.70970703 15.1421875 -26.60691406 14.471875 -25.47070312 13.78125 C-24.41431641 13.13800781 -23.35792969 12.49476563 -22.26953125 11.83203125 C-21.24682129 11.21021973 -20.22411133 10.5884082 -19.17041016 9.94775391 C-16.90916982 8.55855204 -14.66055417 7.15665732 -12.41943359 5.73583984 C-11.82869553 5.36416183 -11.23795746 4.99248383 -10.62931824 4.60954285 C-8.97860617 3.56960711 -7.33230667 2.52267678 -5.6862793 1.4753418 C-3 0 -3 0 0 0 Z " fill="#004482" transform="translate(230,503)"/>
<path d="M0 0 C1.28548685 1.02352839 2.55553725 2.06663737 3.8125 3.125 C4.60140625 3.78113281 5.3903125 4.43726563 6.203125 5.11328125 C14.34340176 12.14238526 20.94679232 20.14231313 26.8125 29.125 C26.16216797 29.51018799 25.51183594 29.89537598 24.84179688 30.29223633 C18.51427045 34.0402734 12.18754506 37.78965789 5.86143494 41.54008484 C1.86286277 43.91040083 -2.13677819 46.27890093 -6.13717651 48.64613342 C-20.1029204 56.91174247 -34.03971104 65.21908162 -47.89620972 73.66671753 C-57.95751473 79.79879156 -68.07854946 85.82591471 -78.21844482 91.82696533 C-88.3696662 97.83644188 -98.47390875 103.91800851 -108.54714966 110.05718994 C-119.03029734 116.44472549 -129.57901778 122.71489479 -140.16357422 128.93261719 C-142.51296093 130.31674321 -144.8531087 131.71573708 -147.1875 133.125 C-160.60041317 106.91743854 -165.69408087 79.90360175 -157.1875 51.125 C-155.29232299 45.57518497 -152.85865877 40.33790376 -150.1875 35.125 C-149.67574219 34.09246094 -149.16398437 33.05992187 -148.63671875 31.99609375 C-135.75672363 7.99391922 -113.37126297 -8.04844171 -87.71875 -15.98046875 C-57.30034994 -23.68601478 -25.57827928 -18.57899159 0 0 Z " fill="#669AD2" transform="translate(461.1875,318.875)"/>
<path d="M0 0 C2.94799517 1.45625489 5.77629159 3.03063783 8.61010742 4.69921875 C9.46255791 5.19945305 9.46255791 5.19945305 10.33222961 5.70979309 C12.19261415 6.80294903 14.0498761 7.90128551 15.90698242 9 C17.21539749 9.77099848 18.52391123 10.54182954 19.83251953 11.3125 C41.55631186 24.12034335 63.11355384 37.20447432 84.65698242 50.3125 C82.92651502 61.95886025 69.48618872 72.87339861 60.67797852 79.88867188 C37.34636923 97.14013518 8.98261335 102.86309344 -19.60864258 98.66015625 C-45.88036234 93.80994984 -67.27979388 78.23602057 -83.26098633 57.37890625 C-85.0739021 54.70885207 -85.7243165 53.33739694 -86.34301758 50.3125 C-79.7093381 45.72493347 -72.84807386 41.60686997 -65.87051392 37.56622314 C-55.66188806 31.65062813 -45.50901995 25.64793511 -35.42889404 19.51593018 C-33.66850791 18.44539971 -31.90649644 17.37758454 -30.14428711 16.31005859 C-24.97983173 13.17293846 -19.84080725 10.00920044 -14.76489258 6.73046875 C-13.93304443 6.1998584 -13.10119629 5.66924805 -12.24414062 5.12255859 C-10.73804082 4.15811385 -9.24118771 3.17899414 -7.75634766 2.18212891 C-2.96555718 -0.8701687 -2.96555718 -0.8701687 0 0 Z " fill="#024583" transform="translate(401.343017578125,400.6875)"/>
</svg>
